<svg xmlns="http://www.w3.org/2000/svg" viewBox="0 0 218.25 67.48"><defs><style>.cls-1,.cls-12,.cls-14,.cls-3,.cls-4,.cls-7,.cls-8{fill:none;}.cls-1,.cls-14,.cls-8{stroke:#265b6d;}.cls-1,.cls-12,.cls-14,.cls-3,.cls-7,.cls-8{stroke-miterlimit:10;}.cls-1{stroke-width:0.87px;}.cls-2{fill:#939598;}.cls-3{stroke:#939598;}.cls-12,.cls-3,.cls-7{stroke-width:1.3px;}.cls-5{fill:#265b6d;}.cls-6{fill:#4bae4d;}.cls-7{stroke:#4bae4d;}.cls-8{stroke-width:0.87px;}.cls-9{fill:#6f3f98;}.cls-10{fill:#ef4538;}.cls-11{fill:#785549;}.cls-12{stroke:#785549;}.cls-13{fill:#37a5dd;}.cls-14{stroke-width:0.37px;}</style></defs><title>bdverse_logo_color</title><g id="Layer_2" data-name="Layer 2"><g id="Layer_1-2" data-name="Layer 1"><line class="cls-1" x1="36.02" y1="28.05" x2="38.48" y2="38.89"/><line class="cls-1" x1="53.49" y1="11.14" x2="41.82" y2="39.01"/><line class="cls-1" x1="25.23" y1="47.15" x2="34.19" y2="45.29"/><circle class="cls-2" cx="17.37" cy="36.24" r="3.32" transform="translate(-10.08 6.89) rotate(-17.47)"/><circle class="cls-2" cx="21.08" cy="48.01" r="3.32" transform="translate(-13.44 8.54) rotate(-17.47)"/><line class="cls-3" x1="17.37" y1="36.24" x2="21.63" y2="49.77"/><path class="cls-4" d="M38.48,38.89a5.54,5.54,0,0,0-3,8.83,5.56,5.56,0,0,0,5.62,1.94,5.54,5.54,0,0,0,3-8.83A5.56,5.56,0,0,0,38.48,38.89ZM44,46.59a4.8,4.8,0,0,1-.53.79,4.86,4.86,0,0,1-.7.68h0a4.84,4.84,0,0,1-.86.54c-.1.05-.21.08-.31.12A4.81,4.81,0,0,1,41,49l-.08,0a4.83,4.83,0,0,1-.71.11H40a4.86,4.86,0,0,1-.7,0l-.24,0a4.86,4.86,0,0,1-.67-.14l-.15,0a4.83,4.83,0,0,1-.76-.32l-.18-.11a4.79,4.79,0,0,1-.55-.37l-.19-.15a4.82,4.82,0,0,1,1-8c.1,0,.21-.08.31-.12a4.82,4.82,0,0,1,.63-.22l.08,0a4.83,4.83,0,0,1,.71-.11h.14a4.87,4.87,0,0,1,.7,0l.24,0a4.86,4.86,0,0,1,.67.14l.15,0A4.83,4.83,0,0,1,42,40l.18.11a4.8,4.8,0,0,1,.55.37l.19.15a4.78,4.78,0,0,1,1.08,6Z"/><path class="cls-5" d="M44.64,40.39a6.26,6.26,0,0,0-6.33-2.18h0a6.24,6.24,0,0,0-3.43,9.95,6.26,6.26,0,0,0,6.33,2.18,6.24,6.24,0,0,0,3.43-9.95Zm-1.43,8.21a5.49,5.49,0,0,1-2.16,1.05,5.56,5.56,0,0,1-5.62-1.94,5.54,5.54,0,0,1,3-8.83,5.54,5.54,0,0,1,4.73,9.72Z"/><path class="cls-5" d="M38.64,39.57l-.08,0a4.83,4.83,0,0,1,.79-.14A4.83,4.83,0,0,0,38.64,39.57Z"/><path class="cls-5" d="M40.89,49,41,49a4.84,4.84,0,0,1-.79.14A4.83,4.83,0,0,0,40.89,49Z"/><path class="cls-5" d="M42.77,48.06h0a4.86,4.86,0,0,0,.7-.68,4.86,4.86,0,0,1-.7.68Z"/><path class="cls-5" d="M40.92,48.74a4.53,4.53,0,0,1-.76.13H40a4.66,4.66,0,0,1-.67,0l-.23,0a4.66,4.66,0,0,1-.64-.14l-.07,0-.07,0a4.58,4.58,0,0,1-.73-.31l-.1-.06-.07,0a4.65,4.65,0,0,1-.52-.35l0,0-.15-.12a4.61,4.61,0,0,1,.15-7.09,4.63,4.63,0,0,1,.83-.52l.16-.06L38,40a5.26,5.26,0,0,1,.54-.2l.06,0a4.63,4.63,0,0,1,.76-.13h.13a4.75,4.75,0,0,1,.67,0l.23,0a4.69,4.69,0,0,1,.64.14l.07,0,.07,0a4.55,4.55,0,0,1,.73.31l.1.06.07,0a4.65,4.65,0,0,1,.52.35l.18.15a4.55,4.55,0,0,1,.59.6,4.61,4.61,0,0,1,.44,5.09,4.56,4.56,0,0,1-.51.75,4.65,4.65,0,0,1-.67.65,4.72,4.72,0,0,1-.83.52l-.16.07-.13.05a5.17,5.17,0,0,1-.53.2Z"/><path class="cls-5" d="M83.29.4a4.18,4.18,0,0,1,3.24,1.55,4.27,4.27,0,0,1-.54,6,4.1,4.1,0,0,1-2.64,1,4.18,4.18,0,0,1-3.24-1.55,4.27,4.27,0,0,1,.54-6,4.1,4.1,0,0,1,2.64-1m0-.4h0a4.52,4.52,0,0,0-2.9,1.05,4.67,4.67,0,0,0-.59,6.51,4.57,4.57,0,0,0,3.55,1.69,4.52,4.52,0,0,0,2.9-1.05,4.67,4.67,0,0,0,.59-6.51A4.57,4.57,0,0,0,83.29,0Z"/><circle class="cls-6" cx="55.19" cy="7.09" r="3.32" transform="translate(-0.11 13.22) rotate(-13.65)"/><circle class="cls-6" cx="43.2" cy="10" r="3.32" transform="translate(-1.14 10.48) rotate(-13.65)"/><line class="cls-7" x1="55.19" y1="7.09" x2="41.41" y2="10.44"/><line class="cls-1" x1="20.17" y1="60.21" x2="35.18" y2="48"/><line class="cls-8" x1="43.86" y1="40.55" x2="80.06" y2="7.59"/><path class="cls-9" d="M85.77,2.45a3.36,3.36,0,0,1-.1,4.7A3.26,3.26,0,0,1,81,7a3.36,3.36,0,0,1,.1-4.7A3.26,3.26,0,0,1,85.77,2.45Z"/><circle class="cls-10" cx="35.03" cy="23.76" r="3.32" transform="translate(-7.18 26.98) rotate(-38.51)"/><circle class="cls-11" cx="16.83" cy="62.94" r="3.32" transform="translate(-21.36 10.15) rotate(-20.92)"/><circle class="cls-11" cx="3.32" cy="59.25" r="3.32" transform="translate(-20.94 5.09) rotate(-20.92)"/><line class="cls-12" x1="16.83" y1="62.94" x2="3.32" y2="59.25"/><line class="cls-1" x1="13.84" y1="22.19" x2="35.43" y2="40.79"/><circle class="cls-13" cx="10.58" cy="19.37" r="3.32" transform="translate(-9.76 10.8) rotate(-38.51)"/><path class="cls-5" d="M35,19.58a4.22,4.22,0,1,1-2.69,1,4.21,4.21,0,0,1,2.69-1m0-.4a4.62,4.62,0,1,0,3.56,1.67A4.62,4.62,0,0,0,35,19.18Z"/><path class="cls-5" d="M10.58,15.15a4.22,4.22,0,1,1-2.69,1,4.21,4.21,0,0,1,2.69-1m0-.4h0a4.62,4.62,0,1,0,3.56,1.67,4.62,4.62,0,0,0-3.56-1.67Z"/><path class="cls-5" d="M16.76,58.65a4.22,4.22,0,1,1-2.69,1,4.21,4.21,0,0,1,2.69-1m0-.4a4.62,4.62,0,1,0,3.56,1.67,4.62,4.62,0,0,0-3.56-1.67Z"/><path class="cls-5" d="M21.09,43.74a4.22,4.22,0,1,1-3,1.28,4.21,4.21,0,0,1,3-1.28m0-.4h0a4.62,4.62,0,1,0,3.22,1.31,4.58,4.58,0,0,0-3.22-1.31Z"/><path class="cls-5" d="M55.19,2.87a4.22,4.22,0,1,1-2.69,1,4.21,4.21,0,0,1,2.69-1m0-.4a4.62,4.62,0,1,0,3.56,1.67,4.62,4.62,0,0,0-3.56-1.67Z"/><circle class="cls-4" cx="39.76" cy="44.28" r="5.66" transform="translate(-9.18 10.42) rotate(-13.4)"/><path class="cls-14" d="M160.23,61.35c-10.28,0-18.62-5.58-18.62-12.47s8.34-12.47,18.62-12.47S178.85,42,178.85,48.88,170.51,61.35,160.23,61.35Zm2.85-20.07c-7.82,0-14.15,3.82-14.15,8.53s6.34,8.53,14.15,8.53,13.59-2.61,13.59-8.53S170.89,41.28,163.08,41.28Z"/><path class="cls-5" d="M61.52,62.46h-.08v2.38H55.13V34.58h6.31V47.47h.08a7.48,7.48,0,0,1,6.65-3.57,7.29,7.29,0,0,1,6.09,2.71A11.71,11.71,0,0,1,76.39,54a12.68,12.68,0,0,1-2.49,8.2,8.12,8.12,0,0,1-6.67,3.09A6.44,6.44,0,0,1,61.52,62.46Zm-.18-8.62v2.1a4.79,4.79,0,0,0,1.14,3.27,3.7,3.7,0,0,0,2.91,1.3,3.87,3.87,0,0,0,3.34-1.67,8,8,0,0,0,1.19-4.72,6.4,6.4,0,0,0-1.09-4,3.67,3.67,0,0,0-3.1-1.43,4,4,0,0,0-3.14,1.42A5.38,5.38,0,0,0,61.34,53.84Z"/><path class="cls-5" d="M101.4,64.84H95.09V62H95a7.07,7.07,0,0,1-6.33,3.31,7.75,7.75,0,0,1-6.17-2.7q-2.34-2.7-2.33-7.55A12.18,12.18,0,0,1,82.76,47,8.4,8.4,0,0,1,89.5,43.9q4,0,5.51,2.83h.08V34.58h6.31ZM94.29,54.9V53.36A4.84,4.84,0,0,0,93.13,50a4.09,4.09,0,0,0-6.29.33,7.64,7.64,0,0,0-1.18,4.52,6.62,6.62,0,0,0,1.14,4.15A4,4,0,0,0,93.08,59,6.4,6.4,0,0,0,94.29,54.9Z"/><path class="cls-5" d="M127.09,44.4l-7.6,20.44H112.3L105.06,44.4h6.75L115.36,57a18.4,18.4,0,0,1,.7,3.63h.08a20.58,20.58,0,0,1,.74-3.51L120.5,44.4Z"/><path class="cls-5" d="M148.15,56.42H134.81q.32,4.45,5.61,4.45a11,11,0,0,0,5.93-1.6v4.55A15.57,15.57,0,0,1,139,65.34q-4.95,0-7.68-2.74t-2.73-7.65a10.94,10.94,0,0,1,3-8.06,9.84,9.84,0,0,1,7.26-3,8.93,8.93,0,0,1,6.92,2.65,10.22,10.22,0,0,1,2.45,7.2Zm-6.77-3.87q0-4.39-3.55-4.39a3.39,3.39,0,0,0-2.62,1.26,5.71,5.71,0,0,0-1.35,3.13Z"/><path class="cls-5" d="M179.64,64.3V59.19a13.42,13.42,0,0,0,3.1,1.4,10.29,10.29,0,0,0,2.92.46,6.28,6.28,0,0,0,2.64-.46,1.48,1.48,0,0,0,1-1.4,1.29,1.29,0,0,0-.44-1,4.08,4.08,0,0,0-1.13-.7,12.85,12.85,0,0,0-1.51-.54q-.82-.24-1.58-.54a15.06,15.06,0,0,1-2.15-1,6.21,6.21,0,0,1-1.56-1.23,4.82,4.82,0,0,1-1-1.62,6.45,6.45,0,0,1-.33-2.18,5.6,5.6,0,0,1,.75-3,6.12,6.12,0,0,1,2-2,9.13,9.13,0,0,1,2.85-1.16,14.87,14.87,0,0,1,3.34-.37,18.53,18.53,0,0,1,2.75.21,20.72,20.72,0,0,1,2.75.61v4.87a10,10,0,0,0-2.56-1,10.86,10.86,0,0,0-2.68-.35,6,6,0,0,0-1.17.11,3.84,3.84,0,0,0-1,.32,1.78,1.78,0,0,0-.66.54,1.24,1.24,0,0,0-.24.75,1.38,1.38,0,0,0,.36,1,3.12,3.12,0,0,0,.94.69,9.28,9.28,0,0,0,1.29.52l1.41.47a18.42,18.42,0,0,1,2.28,1,7.27,7.27,0,0,1,1.75,1.22,4.78,4.78,0,0,1,1.12,1.64,6.55,6.55,0,0,1-.4,5.34,6.31,6.31,0,0,1-2.1,2.1,9.51,9.51,0,0,1-3,1.18,16.75,16.75,0,0,1-3.54.37A18.28,18.28,0,0,1,179.64,64.3Z"/><path class="cls-5" d="M218.25,56.42H204.92q.32,4.45,5.61,4.45a11,11,0,0,0,5.93-1.6v4.55a15.57,15.57,0,0,1-7.36,1.52q-4.95,0-7.68-2.74t-2.73-7.65a10.94,10.94,0,0,1,3-8.06,9.84,9.84,0,0,1,7.26-3,8.93,8.93,0,0,1,6.92,2.65,10.22,10.22,0,0,1,2.45,7.2Zm-5.85-4.8q0-4.39-3.55-4.39a3.39,3.39,0,0,0-2.62,1.26,5.71,5.71,0,0,0-1.35,3.13Z"/><path class="cls-5" d="M167.63,55.73a14,14,0,0,1,1.78.67,3.45,3.45,0,0,1,.9.65,2.44,2.44,0,0,1,.41.59l4.44,7.49H168l-3.36-6.3a8.11,8.11,0,0,0-1.11-1.52,1.17,1.17,0,0,0-.85-.39H161v8.21h-6.35v-21h12.76s5.81.1,5.81,5.63S167.63,55.73,167.63,55.73Zm-2.76-7H161v3.57h3.85a1.76,1.76,0,0,0,1.78-1.81A1.66,1.66,0,0,0,164.87,48.7Z"/></g></g></svg>