<?xml version="1.0" encoding="UTF-8" standalone="no"?>
<!-- Created with Inkscape (http://www.inkscape.org/) -->

<svg
   xmlns:dc="http://purl.org/dc/elements/1.1/"
   xmlns:cc="http://creativecommons.org/ns#"
   xmlns:rdf="http://www.w3.org/1999/02/22-rdf-syntax-ns#"
   xmlns:svg="http://www.w3.org/2000/svg"
   xmlns="http://www.w3.org/2000/svg"
   xmlns:sodipodi="http://sodipodi.sourceforge.net/DTD/sodipodi-0.dtd"
   xmlns:inkscape="http://www.inkscape.org/namespaces/inkscape"
   width="47.959141mm"
   height="69.049759mm"
   viewBox="0 0 169.93396 244.6645"
   id="svg2"
   version="1.1"
   inkscape:version="0.91 r13725"
   sodipodi:docname="TechnionLogo.svg">
  <defs
     id="defs4">
    <clipPath
       id="clipPath4148"
       clipPathUnits="userSpaceOnUse">
      <path
         inkscape:connector-curvature="0"
         id="path4150"
         d="m 0,0 609.45,0 0,722.83 L 0,722.83 0,0 Z" />
    </clipPath>
    <clipPath
       id="clipPath4162"
       clipPathUnits="userSpaceOnUse">
      <path
         inkscape:connector-curvature="0"
         id="path4164"
         d="m 0,722.83 609.45,0 L 609.45,0 0,0 0,722.83 Z" />
    </clipPath>
    <clipPath
       id="clipPath4170"
       clipPathUnits="userSpaceOnUse">
      <path
         inkscape:connector-curvature="0"
         id="path4172"
         d="m -18.045,731.601 637.128,0 0,-742.3816 -637.128,0 0,742.3816 z" />
    </clipPath>
    <radialGradient
       id="radialGradient4178"
       spreadMethod="pad"
       gradientTransform="matrix(812.46765,0,0,-789.09637,95.234558,167.64948)"
       gradientUnits="userSpaceOnUse"
       r="1"
       cy="0"
       cx="0"
       fy="0"
       fx="0">
      <stop
         id="stop4180"
         offset="0"
         style="stop-opacity:1;stop-color:#ffffff" />
      <stop
         id="stop4182"
         offset="0.530612"
         style="stop-opacity:1;stop-color:#ffffff" />
      <stop
         id="stop4184"
         offset="1"
         style="stop-opacity:1;stop-color:#677d85" />
    </radialGradient>
    <clipPath
       id="clipPath4204"
       clipPathUnits="userSpaceOnUse">
      <path
         inkscape:connector-curvature="0"
         id="path4206"
         d="m -18.045,123.45 635.25,0 0,-134.2172 -635.25,0 0,134.2172 z" />
    </clipPath>
    <clipPath
       id="clipPath4222"
       clipPathUnits="userSpaceOnUse">
      <path
         inkscape:connector-curvature="0"
         id="path4224"
         d="m 0,722.83 609.45,0 L 609.45,0 0,0 0,722.83 Z" />
    </clipPath>
    <clipPath
       id="clipPath4284"
       clipPathUnits="userSpaceOnUse">
      <path
         inkscape:connector-curvature="0"
         id="path4286"
         d="m 0,722.83 609.45,0 L 609.45,0 0,0 0,722.83 Z" />
    </clipPath>
  </defs>
  <sodipodi:namedview
     id="base"
     pagecolor="#ffffff"
     bordercolor="#666666"
     borderopacity="1.0"
     inkscape:pageopacity="0.0"
     inkscape:pageshadow="2"
     inkscape:zoom="1.4142136"
     inkscape:cx="53.76456"
     inkscape:cy="127.13033"
     inkscape:document-units="px"
     inkscape:current-layer="layer1"
     showgrid="false"
     fit-margin-top="0"
     fit-margin-left="0"
     fit-margin-right="0"
     fit-margin-bottom="0"
     inkscape:window-width="1858"
     inkscape:window-height="1053"
     inkscape:window-x="-8"
     inkscape:window-y="-8"
     inkscape:window-maximized="1"
     showguides="true"
     inkscape:guide-bbox="true" />
  <metadata
     id="metadata7">
    <rdf:RDF>
      <cc:Work
         rdf:about="">
        <dc:format>image/svg+xml</dc:format>
        <dc:type
           rdf:resource="http://purl.org/dc/dcmitype/StillImage" />
        <dc:title></dc:title>
      </cc:Work>
    </rdf:RDF>
  </metadata>
  <g
     inkscape:label="Calque 1"
     inkscape:groupmode="layer"
     id="layer1"
     transform="translate(130.96068,-10.410729)">
    <path
       sodipodi:nodetypes="cccccccc"
       inkscape:connector-curvature="0"
       id="path4271"
       d="m -129.54648,12.44686 0,159.35254 0,3.79272 0.13636,0 c 2.08574,43.32824 38.850833,77.42289 83.512998,77.44698 44.640182,-0.0536 81.371478,-34.14002 83.456187,-77.44698 L 37.495049,12.44686 Z"
       style="color:#000000;clip-rule:nonzero;display:inline;overflow:visible;visibility:visible;opacity:1;isolation:auto;mix-blend-mode:normal;color-interpolation:sRGB;color-interpolation-filters:linearRGB;solid-color:#000000;solid-opacity:1;fill:#002d62;fill-opacity:1;fill-rule:nonzero;stroke:none;stroke-width:0;stroke-linecap:butt;stroke-linejoin:miter;stroke-miterlimit:4;stroke-dasharray:none;stroke-dashoffset:0;stroke-opacity:1;color-rendering:auto;image-rendering:auto;shape-rendering:auto;text-rendering:auto;enable-background:accumulate" />
    <path
       style="color:#000000;clip-rule:nonzero;display:inline;overflow:visible;visibility:visible;opacity:1;isolation:auto;mix-blend-mode:normal;color-interpolation:sRGB;color-interpolation-filters:linearRGB;solid-color:#000000;solid-opacity:1;fill:#002d62;fill-opacity:1;fill-rule:nonzero;stroke:#ffffff;stroke-width:3.54560637;stroke-linecap:butt;stroke-linejoin:miter;stroke-miterlimit:4;stroke-dasharray:none;stroke-dashoffset:0;stroke-opacity:1;color-rendering:auto;image-rendering:auto;shape-rendering:auto;text-rendering:auto;enable-background:accumulate"
       d="m -122.37139,22.198042 0,147.305448 0,3.50599 0.12455,0 c 1.90666,40.05265 35.514552,71.56972 76.341364,71.59198 40.806711,-0.0494 74.383716,-31.55901 76.2894,-71.59198 L 30.325454,22.198042 Z"
       id="rect4251"
       inkscape:connector-curvature="0"
       sodipodi:nodetypes="cccccccc" />
    <g
       id="g4255"
       transform="matrix(1.6582783,0,0,1.6582783,-280.89888,-113.09353)"
       style="fill:#ffffff">
      <g
         style="fill:#ffffff;fill-opacity:1"
         transform="matrix(2.3961856,0,0,-2.3961856,181.60598,108.95288)"
         id="g4214">
        <path
           inkscape:connector-curvature="0"
           id="path4216"
           style="fill:#ffffff;fill-opacity:1;fill-rule:nonzero;stroke:none"
           d="m 0,0 -22.98,0 2.405,-5.812 10.957,0 -6.95,-15.774 L -26.721,0 -33.4,0 -16.701,-36.254 0,0 Z" />
      </g>
      <g
         style="fill:#ffffff;fill-opacity:1"
         transform="matrix(2.3961856,0,0,-2.3961856,170.97242,168.41115)"
         id="g4226">
        <path
           inkscape:connector-curvature="0"
           id="path4228"
           style="fill:#ffffff;fill-opacity:1;fill-rule:nonzero;stroke:none"
           d="M 0,0 C -0.079,0.757 -0.241,1.449 -0.453,2.175 L 2.315,3.668 C 2.108,4.288 1.862,4.89 1.582,5.472 L -1.439,4.679 c -0.355,0.672 -0.767,1.252 -1.23,1.847 l 2.004,2.421 C -1.012,9.433 -1.088,9.545 -1.442,9.999 L -2.185,8.446 -5.047,2.517 c 1.076,-1.47 1.267,-1.845 1.267,-3.807 0,-4.306 -3.061,-7.896 -7.127,-8.712 l -1.356,-3.112 -1.355,3.112 c -4.065,0.816 -7.128,4.406 -7.128,8.712 0,1.962 0.192,2.337 1.27,3.807 l -2.874,5.856 -0.734,1.626 c -0.284,-0.358 -0.451,-0.621 -0.777,-1.052 l 2.006,-2.421 c -0.467,-0.595 -0.874,-1.175 -1.231,-1.847 l -3.023,0.793 C -26.388,4.89 -26.633,4.288 -26.841,3.668 l 2.767,-1.493 C -24.285,1.449 -24.446,0.757 -24.524,0 l -3.098,-0.395 c -0.04,-0.645 -0.043,-1.294 -0.006,-1.946 l 3.125,-0.348 c 0.079,-0.752 0.188,-1.455 0.396,-2.187 l -2.723,-1.526 c 0.205,-0.615 0.445,-1.141 0.727,-1.73 l 3.025,0.772 c 0.354,-0.67 0.719,-1.28 1.187,-1.879 l -1.951,-2.437 c 0.415,-0.492 0.868,-0.96 1.347,-1.402 l 2.49,1.92 c 0.577,-0.488 1.144,-0.917 1.805,-1.297 l -0.9,-2.99 c 0.573,-0.3 1.166,-0.566 1.775,-0.796 l 1.589,2.712 c 0.72,-0.236 1.406,-0.421 2.158,-0.528 l 0.289,-3.108 c 0.643,-0.063 0.374,-0.088 1.026,-0.072 0.652,-0.016 0.384,0.009 1.027,0.072 l 0.289,3.108 c 0.753,0.107 1.439,0.292 2.158,0.528 l 1.588,-2.712 c 0.611,0.23 1.202,0.496 1.777,0.796 l -0.899,2.99 c 0.658,0.38 1.225,0.809 1.804,1.297 l 2.489,-1.92 c 0.481,0.442 0.931,0.91 1.348,1.402 l -1.953,2.437 c 0.468,0.599 0.833,1.209 1.188,1.879 l 3.025,-0.772 c 0.28,0.589 0.523,1.115 0.726,1.73 l -2.725,1.526 c 0.209,0.732 0.32,1.435 0.399,2.187 l 3.126,0.348 c 0.035,0.652 0.035,1.301 -0.007,1.946 L 0,0 Z" />
      </g>
      <g
         style="fill:#ffffff;fill-opacity:1"
         transform="matrix(2.3961856,0,0,-2.3961856,123.23417,99.187746)"
         id="g4230">
        <path
           inkscape:connector-curvature="0"
           id="path4232"
           style="fill:#ffffff;fill-opacity:1;fill-rule:nonzero;stroke:none"
           d="m 0,0 c 1.664,0 3.067,-0.465 4.61,-1.203 1.306,-0.622 2.536,-1.172 4.041,-1.237 1.534,-0.067 4.218,-0.052 5.849,0.637 0.711,0.301 1.068,0.6 0.866,1.603 0.309,0.798 1.114,0.726 1.737,1.202 0.445,0.343 0.8,1.19 0.8,1.804 0,0.594 0.624,0.402 1.136,0.802 0.35,0.273 0.667,0.802 0.868,1.469 -1.403,0 -3.128,-0.684 -4.541,-0.935 -1.845,-0.326 -3.141,-0.668 -5.144,-0.668 -4.677,0 -7.415,1.47 -11.29,1.47 -4.778,0 -8.016,-2.606 -8.016,-7.148 l 6.68,0 C -2.136,-0.401 -0.601,0 0,0" />
      </g>
    </g>
  </g>
</svg>
