<svg xmlns="http://www.w3.org/2000/svg" viewBox="0 0 195.27 63.81"><defs><style>.cls-1{fill:#fff;stroke-width:0.32px;}.cls-1,.cls-8,.cls-9{stroke:#265b6d;}.cls-1,.cls-13,.cls-14,.cls-17,.cls-7,.cls-8,.cls-9{stroke-miterlimit:10;}.cls-2{font-size:35px;font-family:Ebrima-Bold, Ebrima;font-weight:700;}.cls-2,.cls-5{fill:#265b6d;}.cls-3{font-size:14px;}.cls-4{font-size:12px;}.cls-6{fill:#4bae4d;}.cls-13,.cls-14,.cls-17,.cls-7,.cls-8,.cls-9{fill:none;}.cls-7{stroke:#4bae4d;}.cls-13,.cls-17,.cls-7{stroke-width:1.14px;}.cls-8{stroke-width:0.76px;}.cls-9{stroke-width:0.76px;}.cls-10{fill:#6f3f98;}.cls-11{fill:#ef4538;}.cls-12{fill:#785549;}.cls-13{stroke:#785549;}.cls-14{stroke:#f1f2f2;stroke-width:1.22px;}.cls-15{fill:#37a5dd;}.cls-16{fill:#939598;}.cls-17{stroke:#939598;}</style></defs><title>bdverse_logo_short_3</title><g id="Layer_2" data-name="Layer 2"><g id="Layer_1-2" data-name="Layer 1"><path class="cls-1" d="M145.44,49.64c-8.81,0-15.95-4.78-15.95-10.68s7.14-10.68,15.95-10.68S161.39,33.07,161.39,39,154.25,49.64,145.44,49.64Zm2.44-17.18c-6.69,0-12.12,3.27-12.12,7.3s5.43,7.3,12.12,7.3,11.63-2.23,11.63-7.3S154.57,32.46,147.88,32.46Z"/><text class="cls-2" transform="translate(53.18 52.63)">bdve<tspan class="cls-3" x="81.28" y="0"> </tspan><tspan x="85.14" y="0" xml:space="preserve">  </tspan><tspan class="cls-4" x="104.45" y="0"> </tspan><tspan x="107.76" y="0">se</tspan></text><path class="cls-5" d="M151.78,44.83a12,12,0,0,1,1.53.57,3,3,0,0,1,.77.55,2.09,2.09,0,0,1,.35.51l3.8,6.41h-6.15l-2.87-5.4a7,7,0,0,0-1-1.3,1,1,0,0,0-.73-.33h-1.46v7h-5.44v-18h10.92s5,.09,5,4.82S151.78,44.83,151.78,44.83Zm-2.37-6h-3.29v3.05h3.29a1.51,1.51,0,0,0,1.53-1.55A1.42,1.42,0,0,0,149.41,38.81Z"/><path class="cls-5" d="M77.82,1A3.65,3.65,0,0,1,80.89,2.7a3.73,3.73,0,0,1-1.06,5.12,3.59,3.59,0,0,1-2,.59,3.65,3.65,0,0,1-3.08-1.69,3.73,3.73,0,0,1,1.06-5.12,3.59,3.59,0,0,1,2-.59m0-.35h0a3.93,3.93,0,0,0-2.17.65,4.08,4.08,0,0,0-1.16,5.6,4,4,0,0,0,3.37,1.85A3.93,3.93,0,0,0,80,8.11a4.08,4.08,0,0,0,1.16-5.6A4,4,0,0,0,77.82.66Z"/><circle class="cls-6" cx="53.16" cy="4.04" r="2.9" transform="translate(-0.09 6.59) rotate(-7.08)"/><circle class="cls-6" cx="42.46" cy="5.37" r="2.9" transform="translate(-0.34 5.28) rotate(-7.08)"/><line class="cls-7" x1="53.16" y1="4.04" x2="40.86" y2="5.57"/><line class="cls-8" x1="17.44" y1="46.67" x2="36.05" y2="34.79"/><line class="cls-9" x1="36.05" y1="34.79" x2="74.71" y2="6.96"/><line class="cls-8" x1="34.42" y1="20.33" x2="36.08" y2="35.02"/><path class="cls-10" d="M80.19,3.06a2.93,2.93,0,0,1-.55,4.08,2.85,2.85,0,0,1-4-.58,2.93,2.93,0,0,1,.55-4.08A2.85,2.85,0,0,1,80.19,3.06Z"/><circle class="cls-11" cx="33.99" cy="16.5" r="2.9" transform="translate(-3.58 20.48) rotate(-31.95)"/><circle class="cls-12" cx="14.26" cy="48.7" r="2.9" transform="translate(-11.63 5.05) rotate(-14.35)"/><circle class="cls-12" cx="2.9" cy="44.15" r="2.9" transform="translate(-10.85 2.1) rotate(-14.35)"/><line class="cls-13" x1="14.26" y1="48.7" x2="2.9" y2="44.15"/><line class="cls-8" x1="15.74" y1="13.02" x2="35.66" y2="34.71"/><line class="cls-8" x1="51.28" y1="7.38" x2="35.98" y2="34.5"/><line class="cls-8" x1="23.14" y1="35.83" x2="35.66" y2="34.71"/><path class="cls-5" d="M36.05,39.63a4.84,4.84,0,1,1,2.56-.73A4.82,4.82,0,0,1,36.05,39.63Z"/><path class="cls-5" d="M36,30.56a4.23,4.23,0,1,1-2.23.64A4.23,4.23,0,0,1,36,30.56m0-1.22h0a5.45,5.45,0,1,0,4.63,2.57A5.44,5.44,0,0,0,36,29.34Z"/><circle class="cls-14" cx="36.05" cy="34.79" r="4.23" transform="translate(-12.95 24.34) rotate(-31.95)"/><circle class="cls-15" cx="13.2" cy="10.25" r="2.9" transform="matrix(0.85, -0.53, 0.53, 0.85, -3.42, 8.53)"/><circle class="cls-16" cx="17.41" cy="25.57" r="2.9" transform="translate(-4.52 3.75) rotate(-10.9)"/><circle class="cls-16" cx="19.45" cy="36.16" r="2.9" transform="translate(-6.49 4.33) rotate(-10.9)"/><line class="cls-17" x1="17.41" y1="25.57" x2="19.75" y2="37.75"/><path class="cls-5" d="M34,12.84a3.69,3.69,0,1,1-2,.6,3.69,3.69,0,0,1,2-.6m0-.35a4,4,0,1,0,3.39,1.84A4,4,0,0,0,34,12.49Z"/><path class="cls-5" d="M13.19,6.56a3.69,3.69,0,1,1-2,.6,3.69,3.69,0,0,1,2-.6m0-.35A4,4,0,1,0,16.58,8a4,4,0,0,0-3.39-1.84Z"/><path class="cls-5" d="M14.21,44.95a3.69,3.69,0,1,1-2,.6,3.69,3.69,0,0,1,2-.6m0-.35h0a4,4,0,1,0,3.39,1.84,4,4,0,0,0-3.39-1.84Z"/><path class="cls-5" d="M19.46,32.43a3.69,3.69,0,1,1-2.33.83,3.68,3.68,0,0,1,2.33-.83m0-.35a4,4,0,1,0,3.13,1.48,4,4,0,0,0-3.13-1.48Z"/><path class="cls-5" d="M53.16.35a3.69,3.69,0,1,1-2,.6,3.69,3.69,0,0,1,2-.6m0-.35a4,4,0,1,0,3.39,1.84A4,4,0,0,0,53.16,0Z"/></g></g></svg>