<svg xmlns="http://www.w3.org/2000/svg" viewBox="0 0 319.53 53.36"><defs><style>.cls-1,.cls-13,.cls-3,.cls-5,.cls-6,.cls-8,.cls-9{fill:none;}.cls-1,.cls-3,.cls-9{stroke:#265b6d;}.cls-1,.cls-13,.cls-3,.cls-5,.cls-8,.cls-9{stroke-miterlimit:10;}.cls-1{stroke-width:0.2px;}.cls-2{fill:#265b6d;}.cls-3{stroke-width:0.76px;}.cls-4{fill:#939598;}.cls-5{stroke:#939598;}.cls-13,.cls-5,.cls-8{stroke-width:1.14px;}.cls-7{fill:#4bae4d;}.cls-8{stroke:#4bae4d;}.cls-9{stroke-width:0.76px;}.cls-10{fill:#6f3f98;}.cls-11{fill:#ef4538;}.cls-12{fill:#785549;}.cls-13{stroke:#785549;}.cls-14{fill:#37a5dd;}</style></defs><title>bdverse_logo_color_long</title><g id="Layer_2" data-name="Layer 2"><g id="Layer_1-2" data-name="Layer 1"><path class="cls-1" d="M285.88,45.82c-6,0-10.78-3.23-10.78-7.22s4.83-7.22,10.78-7.22,10.78,3.23,10.78,7.22S291.83,45.82,285.88,45.82Zm1.65-11.61c-4.52,0-8.19,2.21-8.19,4.93s3.67,4.93,8.19,4.93,7.86-1.51,7.86-4.93S292.05,34.2,287.53,34.2Z"/><path class="cls-2" d="M290.51,42.56a8.12,8.12,0,0,1,1,.39,2,2,0,0,1,.52.37,1.41,1.41,0,0,1,.24.34L294.88,48h-4.15l-1.94-3.65a4.7,4.7,0,0,0-.64-.88.68.68,0,0,0-.49-.22h-1V48H283V35.86h7.38s3.36.06,3.36,3.26A3.43,3.43,0,0,1,290.51,42.56Zm-1.6-4.06h-2.23v2.06h2.23a1,1,0,0,0,1-1A1,1,0,0,0,288.91,38.5Z"/><path class="cls-2" d="M52.67,46.32h0v1.39h-3.7V29.94h3.7v7.57h0a4.39,4.39,0,0,1,3.9-2.1A4.28,4.28,0,0,1,60.14,37a6.87,6.87,0,0,1,1.25,4.36,7.44,7.44,0,0,1-1.46,4.82A4.77,4.77,0,0,1,56,48,3.78,3.78,0,0,1,52.67,46.32Zm-.11-5.06v1.23a2.81,2.81,0,0,0,.67,1.92,2.17,2.17,0,0,0,1.71.76,2.27,2.27,0,0,0,2-1,4.72,4.72,0,0,0,.7-2.77A3.76,3.76,0,0,0,57,39.09a2.16,2.16,0,0,0-1.82-.84,2.35,2.35,0,0,0-1.85.83A3.16,3.16,0,0,0,52.56,41.25Z"/><path class="cls-2" d="M64.69,32.66a1.22,1.22,0,0,1-.88-.35,1.19,1.19,0,0,1-.36-.89,1.23,1.23,0,0,1,1.24-1.25,1.24,1.24,0,0,1,.9.36,1.25,1.25,0,0,1,0,1.78A1.23,1.23,0,0,1,64.69,32.66Zm.94,15H63.71v-12h1.92Z"/><path class="cls-2" d="M74.06,48a5.57,5.57,0,0,1-4.25-1.68,6.23,6.23,0,0,1-1.59-4.46,6.49,6.49,0,0,1,1.65-4.72,5.94,5.94,0,0,1,4.46-1.7,5.38,5.38,0,0,1,4.19,1.65A6.55,6.55,0,0,1,80,41.66a6.45,6.45,0,0,1-1.62,4.6A5.69,5.69,0,0,1,74.06,48ZM74.2,37a3.66,3.66,0,0,0-2.93,1.26,5.17,5.17,0,0,0-1.08,3.47,4.89,4.89,0,0,0,1.09,3.36,3.7,3.7,0,0,0,2.92,1.23,3.51,3.51,0,0,0,2.87-1.21,5.24,5.24,0,0,0,1-3.43,5.33,5.33,0,0,0-1-3.47A3.5,3.5,0,0,0,74.2,37Z"/><path class="cls-2" d="M92.87,47.71H90.94v-2h0A4.44,4.44,0,0,1,86.77,48a4.48,4.48,0,0,1-3.62-1.61A6.61,6.61,0,0,1,81.8,42a7.19,7.19,0,0,1,1.5-4.77,5,5,0,0,1,4-1.79,3.85,3.85,0,0,1,3.6,1.95h0V29.94h1.92Zm-1.92-5.43V40.52a3.43,3.43,0,0,0-1-2.46,3.22,3.22,0,0,0-2.44-1,3.32,3.32,0,0,0-2.77,1.29,5.65,5.65,0,0,0-1,3.56,5.08,5.08,0,0,0,1,3.28,3.16,3.16,0,0,0,2.6,1.2,3.28,3.28,0,0,0,2.61-1.16A4.32,4.32,0,0,0,90.94,42.28Z"/><path class="cls-2" d="M97.26,32.66a1.22,1.22,0,0,1-.88-.35,1.19,1.19,0,0,1-.36-.89,1.23,1.23,0,0,1,1.24-1.25,1.24,1.24,0,0,1,.9.36,1.25,1.25,0,0,1,0,1.78A1.23,1.23,0,0,1,97.26,32.66Zm.94,15H96.28v-12H98.2Z"/><path class="cls-2" d="M111,35.71l-4.78,12h-1.89l-4.55-12h2.11l3,8.72a7.83,7.83,0,0,1,.42,1.68h0a7.92,7.92,0,0,1,.38-1.63L109,35.71Z"/><path class="cls-2" d="M122.27,42.19H113.8a4.49,4.49,0,0,0,1.08,3.09,3.72,3.72,0,0,0,2.84,1.09A5.9,5.9,0,0,0,121.44,45v1.8A7,7,0,0,1,117.25,48a5.07,5.07,0,0,1-4-1.63,6.69,6.69,0,0,1-1.45-4.6,6.56,6.56,0,0,1,1.59-4.56,5.09,5.09,0,0,1,3.94-1.76A4.51,4.51,0,0,1,121,37a6.35,6.35,0,0,1,1.29,4.23Zm-2-1.63a3.91,3.91,0,0,0-.8-2.59,2.74,2.74,0,0,0-2.2-.93A3.1,3.1,0,0,0,115,38a4.41,4.41,0,0,0-1.17,2.54Z"/><path class="cls-2" d="M131,37.66a2.35,2.35,0,0,0-1.45-.39,2.45,2.45,0,0,0-2.06,1.16,5.36,5.36,0,0,0-.83,3.16v6.12H124.7v-12h1.92v2.47h0a4.19,4.19,0,0,1,1.25-2,2.86,2.86,0,0,1,1.89-.71,3.14,3.14,0,0,1,1.15.16Z"/><path class="cls-2" d="M131.83,47.28V45.21a5.69,5.69,0,0,0,3.46,1.16q2.53,0,2.53-1.69a1.46,1.46,0,0,0-.22-.81,2.16,2.16,0,0,0-.59-.59,4.51,4.51,0,0,0-.87-.46l-1.07-.43a13.81,13.81,0,0,1-1.4-.64,4.23,4.23,0,0,1-1-.73,2.7,2.7,0,0,1-.61-.92,3.25,3.25,0,0,1-.21-1.21,2.87,2.87,0,0,1,.39-1.49,3.43,3.43,0,0,1,1-1.09,4.81,4.81,0,0,1,1.47-.66,6.52,6.52,0,0,1,1.71-.22,6.88,6.88,0,0,1,2.79.54v1.95a5.44,5.44,0,0,0-3-.87,3.56,3.56,0,0,0-1,.12,2.38,2.38,0,0,0-.74.35A1.6,1.6,0,0,0,134,38a1.4,1.4,0,0,0-.17.69,1.64,1.64,0,0,0,.17.79,1.73,1.73,0,0,0,.5.56,3.81,3.81,0,0,0,.8.45l1.07.43a14.84,14.84,0,0,1,1.43.63,4.9,4.9,0,0,1,1.08.73,2.84,2.84,0,0,1,.69.93,3,3,0,0,1,.24,1.25A3,3,0,0,1,139.4,46a3.36,3.36,0,0,1-1,1.09,4.8,4.8,0,0,1-1.51.64A7.46,7.46,0,0,1,135,48,6.81,6.81,0,0,1,131.83,47.28Z"/><path class="cls-2" d="M143.25,32.66a1.22,1.22,0,0,1-.88-.35,1.19,1.19,0,0,1-.36-.89,1.23,1.23,0,0,1,1.24-1.25,1.24,1.24,0,0,1,.9.36,1.25,1.25,0,0,1,0,1.78A1.23,1.23,0,0,1,143.25,32.66Zm.94,15h-1.92v-12h1.92Z"/><path class="cls-2" d="M153.16,47.59a3.71,3.71,0,0,1-1.79.38q-3.15,0-3.15-3.52v-7.1h-2.06V35.71h2.06V32.78l1.92-.62v3.55h3v1.64h-3v6.76a2.8,2.8,0,0,0,.41,1.72,1.64,1.64,0,0,0,1.36.52,2,2,0,0,0,1.25-.4Z"/><path class="cls-2" d="M164.8,35.71l-5.52,13.92q-1.48,3.73-4.15,3.73a4.4,4.4,0,0,1-1.25-.15V51.48a3.56,3.56,0,0,0,1.14.21A2.36,2.36,0,0,0,157.19,50l1-2.27-4.69-12h2.13l3.25,9.23q.06.18.25.91h.07q.06-.28.23-.89l3.41-9.26Z"/><path class="cls-2" d="M183.83,47.71h-3.7V46.06h0A4.15,4.15,0,0,1,176.37,48a4.55,4.55,0,0,1-3.62-1.59A6.57,6.57,0,0,1,171.37,42a7.15,7.15,0,0,1,1.51-4.77,4.93,4.93,0,0,1,4-1.79,3.37,3.37,0,0,1,3.23,1.66h0V29.94h3.7Zm-3.63-5.84V41a2.84,2.84,0,0,0-.68-1.95,2.4,2.4,0,0,0-3.69.19,4.49,4.49,0,0,0-.69,2.65,3.88,3.88,0,0,0,.67,2.44,2.37,2.37,0,0,0,3.69,0A3.76,3.76,0,0,0,180.2,41.87Z"/><path class="cls-2" d="M195.45,47.71h-1.92V45.84h0A4,4,0,0,1,189.79,48,4,4,0,0,1,187,47a3.29,3.29,0,0,1-1-2.52q0-3.36,4-3.91l3.6-.5q0-3.06-2.47-3.06a5.91,5.91,0,0,0-3.91,1.48v-2a7.44,7.44,0,0,1,4.08-1.12q4.23,0,4.23,4.48Zm-1.92-6.07-2.89.4a4.7,4.7,0,0,0-2,.66,1.91,1.91,0,0,0-.68,1.68,1.83,1.83,0,0,0,.63,1.44,2.42,2.42,0,0,0,1.67.56,3.08,3.08,0,0,0,2.36-1,3.58,3.58,0,0,0,.93-2.54Z"/><path class="cls-2" d="M204.15,47.59a3.71,3.71,0,0,1-1.79.38q-3.15,0-3.15-3.52v-7.1h-2.06V35.71h2.06V32.78l1.92-.62v3.55h3v1.64h-3v6.76a2.8,2.8,0,0,0,.41,1.72,1.64,1.64,0,0,0,1.36.52,2,2,0,0,0,1.25-.4Z"/><path class="cls-2" d="M214.83,47.71h-1.92V45.84h0A4,4,0,0,1,209.17,48a4,4,0,0,1-2.81-.95,3.29,3.29,0,0,1-1-2.52q0-3.36,4-3.91l3.6-.5q0-3.06-2.47-3.06a5.91,5.91,0,0,0-3.91,1.48v-2a7.44,7.44,0,0,1,4.08-1.12q4.23,0,4.23,4.48Zm-1.92-6.07L210,42a4.7,4.7,0,0,0-2,.66,1.91,1.91,0,0,0-.68,1.68,1.83,1.83,0,0,0,.63,1.44,2.42,2.42,0,0,0,1.67.56,3.08,3.08,0,0,0,2.36-1,3.58,3.58,0,0,0,.93-2.54Z"/><path class="cls-2" d="M233.77,47.71h-1.92v-1.9h0A4,4,0,0,1,228.1,48q-4.29,0-4.29-5.11V35.71h1.91v6.87q0,3.8,2.91,3.8a2.94,2.94,0,0,0,2.31-1,4,4,0,0,0,.91-2.71V35.71h1.92Z"/><path class="cls-2" d="M247.13,47.71h-1.92V40.87q0-3.82-2.79-3.82A3,3,0,0,0,240,38.13a4,4,0,0,0-.94,2.74v6.84h-1.92v-12h1.92v2h0a4.33,4.33,0,0,1,3.94-2.27,3.67,3.67,0,0,1,3,1.27,5.66,5.66,0,0,1,1,3.67Z"/><path class="cls-2" d="M251.25,32.66a1.22,1.22,0,0,1-.88-.35,1.19,1.19,0,0,1-.36-.89,1.23,1.23,0,0,1,1.24-1.25,1.24,1.24,0,0,1,.9.36,1.25,1.25,0,0,1,0,1.78A1.23,1.23,0,0,1,251.25,32.66Zm.94,15h-1.92v-12h1.92Z"/><path class="cls-2" d="M266.64,35.71l-4.46,12H258l-4.25-12h4l2.09,7.39a10.8,10.8,0,0,1,.41,2.13h0a12.1,12.1,0,0,1,.43-2.06l2.13-7.46Z"/><path class="cls-2" d="M278.52,42.77H270.7q.19,2.61,3.29,2.61a6.43,6.43,0,0,0,3.48-.94v2.67a9.14,9.14,0,0,1-4.32.89A5.59,5.59,0,0,1,267,41.9a6.42,6.42,0,0,1,1.73-4.73A5.78,5.78,0,0,1,273,35.42,5.24,5.24,0,0,1,277.09,37a6,6,0,0,1,1.44,4.23Zm-3.43-2.27q0-2.58-2.09-2.58a2,2,0,0,0-1.54.74,3.35,3.35,0,0,0-.79,1.84Z"/><path class="cls-2" d="M297.88,47.39v-3a7.88,7.88,0,0,0,1.82.82,6,6,0,0,0,1.72.27,3.68,3.68,0,0,0,1.55-.27.87.87,0,0,0,.57-.82.76.76,0,0,0-.26-.59,2.4,2.4,0,0,0-.66-.41,7.51,7.51,0,0,0-.88-.32q-.48-.14-.93-.32a8.87,8.87,0,0,1-1.26-.58,3.64,3.64,0,0,1-.91-.72,2.83,2.83,0,0,1-.56-.95,3.79,3.79,0,0,1-.19-1.28,3.29,3.29,0,0,1,.44-1.73,3.59,3.59,0,0,1,1.17-1.19,5.35,5.35,0,0,1,1.68-.68,8.74,8.74,0,0,1,2-.22,10.89,10.89,0,0,1,1.62.12,12.07,12.07,0,0,1,1.62.36v2.86a5.84,5.84,0,0,0-1.51-.62,6.35,6.35,0,0,0-1.58-.21,3.49,3.49,0,0,0-.69.06,2.26,2.26,0,0,0-.57.19,1,1,0,0,0-.39.32.73.73,0,0,0-.14.44.81.81,0,0,0,.21.56,1.83,1.83,0,0,0,.55.4,5.44,5.44,0,0,0,.76.3l.83.28a10.74,10.74,0,0,1,1.34.56,4.27,4.27,0,0,1,1,.71,2.81,2.81,0,0,1,.66,1,3.84,3.84,0,0,1-.23,3.13,3.71,3.71,0,0,1-1.23,1.23,5.58,5.58,0,0,1-1.77.69,9.81,9.81,0,0,1-2.08.22A10.72,10.72,0,0,1,297.88,47.39Z"/><path class="cls-2" d="M319.53,42.77H311.7q.19,2.61,3.29,2.61a6.43,6.43,0,0,0,3.48-.94v2.67a9.14,9.14,0,0,1-4.32.89A5.59,5.59,0,0,1,308,41.9a6.42,6.42,0,0,1,1.73-4.73A5.78,5.78,0,0,1,314,35.42,5.24,5.24,0,0,1,318.09,37a6,6,0,0,1,1.44,4.23Zm-3.43-2.27q0-2.58-2.09-2.58a2,2,0,0,0-1.54.74,3.35,3.35,0,0,0-.79,1.84Z"/><line class="cls-3" x1="37.03" y1="17.98" x2="36.92" y2="27.69"/><line class="cls-3" x1="55.31" y1="7.14" x2="39.74" y2="28.47"/><line class="cls-3" x1="23.98" y1="32.04" x2="31.98" y2="32.27"/><circle class="cls-4" cx="19.51" cy="21.16" r="2.9" transform="translate(-1.45 1.44) rotate(-4.07)"/><circle class="cls-4" cx="20.28" cy="31.93" r="2.9" transform="translate(-2.21 1.52) rotate(-4.07)"/><line class="cls-5" x1="19.51" y1="21.16" x2="20.39" y2="33.53"/><path class="cls-6" d="M36.92,27.69a4.84,4.84,0,0,0-4.38,6.89,4.86,4.86,0,0,0,4.38,2.79,4.84,4.84,0,0,0,4.38-6.89A4.86,4.86,0,0,0,36.92,27.69Zm3.15,7.67a4.2,4.2,0,0,1-.61.56,4.25,4.25,0,0,1-.74.44h0a4.23,4.23,0,0,1-.85.29l-.29,0a4.2,4.2,0,0,1-.58.06h-.07a4.22,4.22,0,0,1-.63,0l-.12,0a4.25,4.25,0,0,1-.59-.15l-.2-.07a4.25,4.25,0,0,1-.54-.26l-.12-.06a4.22,4.22,0,0,1-.58-.43L34,35.59a4.19,4.19,0,0,1-.39-.43L33.49,35A4.21,4.21,0,0,1,36,28.42l.29,0a4.21,4.21,0,0,1,.58-.06h.07a4.22,4.22,0,0,1,.63,0l.12,0a4.26,4.26,0,0,1,.59.15l.2.07a4.24,4.24,0,0,1,.54.26l.12.06a4.23,4.23,0,0,1,.58.43l.13.13a4.2,4.2,0,0,1,.39.43l.13.17a4.18,4.18,0,0,1-.29,5.28Z"/><path class="cls-2" d="M41.86,30.22a5.47,5.47,0,0,0-4.94-3.14h0A5.45,5.45,0,0,0,32,34.85,5.47,5.47,0,0,0,36.93,38a5.45,5.45,0,0,0,4.93-7.76ZM39,36.92a4.8,4.8,0,0,1-2.05.46,4.86,4.86,0,0,1-4.38-2.79,4.84,4.84,0,0,1,4.38-6.89A4.84,4.84,0,0,1,39,36.92Z"/><path class="cls-2" d="M36.92,28.31h-.07a4.22,4.22,0,0,1,.7,0A4.22,4.22,0,0,0,36.92,28.31Z"/><path class="cls-2" d="M36.93,36.76H37a4.23,4.23,0,0,1-.7,0A4.22,4.22,0,0,0,36.93,36.76Z"/><path class="cls-2" d="M38.72,36.37h0a4.25,4.25,0,0,0,.74-.44,4.25,4.25,0,0,1-.74.44Z"/><path class="cls-2" d="M40.36,30.08l-.13-.17a4.2,4.2,0,0,0-.39-.43l-.13-.13a4.23,4.23,0,0,0-.58-.43L39,28.86a4.24,4.24,0,0,0-.54-.26l-.2-.07a4.26,4.26,0,0,0-.59-.15l-.12,0a3.84,3.84,0,0,0-1.28,0l-.29,0A4.2,4.2,0,0,0,33.49,35l.13.17a4.19,4.19,0,0,0,.39.43l.13.13a4.22,4.22,0,0,0,.58.43l.12.06a4.25,4.25,0,0,0,.54.26l.2.07a4.25,4.25,0,0,0,.59.15l.12,0a3.84,3.84,0,0,0,1.28,0l.29,0a4.23,4.23,0,0,0,.85-.29h0a4.25,4.25,0,0,0,.74-.44,4.19,4.19,0,0,0,.9-5.84Z"/><path class="cls-2" d="M82,3.94A3.65,3.65,0,0,1,85.27,6a3.73,3.73,0,0,1-1.66,5,3.59,3.59,0,0,1-1.61.38,3.65,3.65,0,0,1-3.28-2.07,3.73,3.73,0,0,1,1.66-5A3.59,3.59,0,0,1,82,3.94m0-.35h0A3.91,3.91,0,0,0,80.23,4a4.08,4.08,0,0,0-1.82,5.42A4,4,0,0,0,82,11.7a3.91,3.91,0,0,0,1.76-.42,4.08,4.08,0,0,0,1.82-5.42A4,4,0,0,0,82,3.59Z"/><circle class="cls-7" cx="57.58" cy="4.04" r="2.9" transform="matrix(1, 0, 0, 1, -0.02, 0.25)"/><circle class="cls-7" cx="46.79" cy="4.08" r="2.9" transform="translate(-0.02 0.2) rotate(-0.25)"/><line class="cls-8" x1="57.58" y1="4.04" x2="45.18" y2="4.09"/><line class="cls-3" x1="17.04" y1="42.12" x2="32.28" y2="34.78"/><line class="cls-9" x1="41.16" y1="30.2" x2="78.62" y2="9.5"/><path class="cls-10" d="M84.52,6.28a2.93,2.93,0,0,1-1,4,2.85,2.85,0,0,1-3.92-1.05,2.93,2.93,0,0,1,1-4A2.85,2.85,0,0,1,84.52,6.28Z"/><circle class="cls-11" cx="37.06" cy="14.13" r="2.9" transform="translate(-2.5 17.06) rotate(-25.11)"/><circle class="cls-12" cx="13.64" cy="43.76" r="2.9" transform="translate(-5.61 2.16) rotate(-7.52)"/><circle class="cls-12" cx="2.9" cy="37.89" r="2.9" transform="translate(-4.93 0.71) rotate(-7.52)"/><line class="cls-13" x1="13.64" y1="43.76" x2="2.9" y2="37.89"/><line class="cls-3" x1="19.35" y1="8.5" x2="33.94" y2="28.69"/><circle class="cls-14" cx="17.16" cy="5.45" r="2.9" transform="translate(-0.69 7.8) rotate(-25.11)"/><path class="cls-2" d="M37.05,10.47a3.69,3.69,0,1,1-1.63.38,3.69,3.69,0,0,1,1.63-.38m0-.35h0a4,4,0,1,0,1.78,7.66,4,4,0,0,0-1.78-7.66Z"/><path class="cls-2" d="M17.15,1.76a3.69,3.69,0,1,1-1.63.38,3.69,3.69,0,0,1,1.63-.38m0-.35h0a4,4,0,0,0-3.62,5.82,4,4,0,1,0,3.62-5.82Z"/><path class="cls-2" d="M13.6,40a3.69,3.69,0,1,1-1.63.38A3.69,3.69,0,0,1,13.6,40m0-.35h0a4,4,0,1,0,3.62,2.26,4,4,0,0,0-3.62-2.26Z"/><path class="cls-2" d="M20.3,28.19a3.69,3.69,0,1,1-2,.57,3.69,3.69,0,0,1,2-.57m0-.35a4,4,0,1,0,3.41,1.88,4,4,0,0,0-3.41-1.88Z"/><path class="cls-2" d="M57.58.35A3.69,3.69,0,1,1,56,.73,3.69,3.69,0,0,1,57.58.35m0-.35h0a4,4,0,0,0-3.82,2.74A4,4,0,1,0,57.58,0Z"/><circle class="cls-6" cx="36.92" cy="32.54" r="4.95"/></g></g></svg>