<svg xmlns="http://www.w3.org/2000/svg" viewBox="0 0 137.09 137.09"><defs><style>.cls-1,.cls-5{fill:#265b6d;}.cls-1{stroke:#37a5dd;stroke-width:2px;}.cls-1,.cls-2{stroke-miterlimit:10;}.cls-2,.cls-6{fill:none;}.cls-2{stroke:#265b6d;stroke-width:3px;}.cls-3,.cls-7{fill:#fff;}.cls-4{fill:#37a5dd;}.cls-4,.cls-5,.cls-6{stroke:#fff;stroke-linecap:round;stroke-linejoin:round;stroke-width:1.59px;}.cls-7{fill-rule:evenodd;}</style></defs><title>bdclean_code</title><g id="Layer_2" data-name="Layer 2"><g id="Layer_1-2" data-name="Layer 1"><circle class="cls-1" cx="68.54" cy="68.54" r="56.32"/><circle class="cls-2" cx="68.54" cy="68.54" r="67.04"/><path class="cls-3" d="M56.23,101.12a9.23,9.23,0,0,1-4,.74A6.75,6.75,0,0,1,47.16,100a6.93,6.93,0,0,1-1.85-5,7.4,7.4,0,0,1,2.08-5.45,7.26,7.26,0,0,1,5.39-2.09,10.08,10.08,0,0,1,3.46.52v3a6.13,6.13,0,0,0-3.2-.84,4.25,4.25,0,0,0-3.18,1.24,4.6,4.6,0,0,0-1.21,3.36,4.51,4.51,0,0,0,1.14,3.24,4,4,0,0,0,3.08,1.21,6.57,6.57,0,0,0,3.38-.9Z"/><path class="cls-3" d="M63.13,101.86a5.37,5.37,0,0,1-3.93-1.4,5.8,5.8,0,0,1,.05-7.69,5.61,5.61,0,0,1,4-1.4,5.31,5.31,0,0,1,3.91,1.4,5,5,0,0,1,1.42,3.71,5.29,5.29,0,0,1-1.46,3.94A5.43,5.43,0,0,1,63.13,101.86Zm.08-8.13a2.06,2.06,0,0,0-1.7.75,3.32,3.32,0,0,0-.61,2.13q0,2.88,2.32,2.88t2.22-3Q65.45,93.74,63.21,93.74Z"/><path class="cls-3" d="M80.38,101.62H77.29v-1.38h0a3.46,3.46,0,0,1-3.1,1.62,3.79,3.79,0,0,1-3-1.32A5.48,5.48,0,0,1,70,96.84a6,6,0,0,1,1.26-4,4.11,4.11,0,0,1,3.3-1.49,2.81,2.81,0,0,1,2.7,1.39h0V86.81h3.09Zm-3-4.86V96a2.36,2.36,0,0,0-.57-1.62,2,2,0,0,0-3.08.16,3.74,3.74,0,0,0-.58,2.21,3.24,3.24,0,0,0,.56,2,2,2,0,0,0,3.07,0A3.13,3.13,0,0,0,77.35,96.75Z"/><path class="cls-3" d="M92,97.5H85.44q.16,2.18,2.74,2.18a5.36,5.36,0,0,0,2.9-.78v2.23a7.62,7.62,0,0,1-3.6.74,4.65,4.65,0,0,1-5.1-5.09,5.35,5.35,0,0,1,1.45-3.95,4.82,4.82,0,0,1,3.55-1.46,4.37,4.37,0,0,1,3.38,1.3A5,5,0,0,1,92,96.2ZM89.1,95.6q0-2.15-1.74-2.15a1.66,1.66,0,0,0-1.28.62,2.79,2.79,0,0,0-.66,1.53Z"/><path class="cls-4" d="M39.83,37.52h35a1.59,1.59,0,0,1,1.59,1.59v4.77a0,0,0,0,1,0,0H38.24a0,0,0,0,1,0,0V39.11A1.59,1.59,0,0,1,39.83,37.52Z"/><path class="cls-5" d="M38.24,43.88H76.42a0,0,0,0,1,0,0V66.15a1.59,1.59,0,0,1-1.59,1.59h-35a1.59,1.59,0,0,1-1.59-1.59V43.88A0,0,0,0,1,38.24,43.88Z"/><polyline class="cls-6" points="53.35 52.23 48.58 55.81 53.35 59.39"/><polyline class="cls-6" points="61.3 59.39 66.08 55.81 61.3 52.23"/><line class="cls-6" x1="58.12" y1="52.63" x2="56.53" y2="58.99"/><path class="cls-7" d="M86.07,50.25A14.78,14.78,0,0,0,81.4,79c.74.14,1-.32,1-.71s0-1.28,0-2.51c-4.11.89-5-2-5-2a3.91,3.91,0,0,0-1.64-2.16c-1.34-.92.1-.9.1-.9a3.1,3.1,0,0,1,2.26,1.52,3.15,3.15,0,0,0,4.3,1.23,3.16,3.16,0,0,1,.94-2c-3.28-.37-6.73-1.64-6.73-7.3a5.71,5.71,0,0,1,1.52-4,5.31,5.31,0,0,1,.14-3.91s1.24-.4,4.06,1.51a14,14,0,0,1,7.4,0c2.82-1.91,4.06-1.51,4.06-1.51A5.31,5.31,0,0,1,94,60.28a5.7,5.7,0,0,1,1.52,4c0,5.68-3.45,6.93-6.75,7.29a3.53,3.53,0,0,1,1,2.74c0,2,0,3.57,0,4.05s.27.85,1,.71a14.78,14.78,0,0,0-4.68-28.8Z"/></g></g></svg>