<svg xmlns="http://www.w3.org/2000/svg" viewBox="0 0 137.09 137.09"><defs><style>.cls-1{fill:#265b6d;stroke:#37a5dd;stroke-width:2px;}.cls-1,.cls-2{stroke-miterlimit:10;}.cls-2,.cls-6{fill:none;}.cls-2,.cls-5{stroke:#265b6d;}.cls-2{stroke-width:3px;}.cls-3,.cls-4,.cls-5{fill:#fff;}.cls-4,.cls-6,.cls-7,.cls-8{stroke:#fff;}.cls-4,.cls-5,.cls-6,.cls-7,.cls-8{stroke-linecap:round;stroke-linejoin:round;stroke-width:0.74px;}.cls-7,.cls-9{fill:#37a5dd;}.cls-8{fill:#70b2e2;}</style></defs><title>bdclean_user_guide</title><g id="Layer_2" data-name="Layer 2"><g id="Layer_1-2" data-name="Layer 1"><circle class="cls-1" cx="68.54" cy="68.54" r="56.32"/><circle class="cls-2" cx="68.54" cy="68.54" r="67.04"/><path class="cls-3" d="M31.59,84.86q0,6-5.59,6-5.42,0-5.42-5.85V77.31h3V85q0,3.23,2.52,3.23t2.48-3.12V77.31h3Z"/><path class="cls-3" d="M33.57,90.37V88a6.23,6.23,0,0,0,1.44.65,4.78,4.78,0,0,0,1.36.21,2.91,2.91,0,0,0,1.23-.21.69.69,0,0,0,.45-.65.6.6,0,0,0-.21-.46,1.91,1.91,0,0,0-.52-.32,6,6,0,0,0-.7-.25q-.38-.11-.73-.25a7,7,0,0,1-1-.46,2.86,2.86,0,0,1-.72-.57,2.22,2.22,0,0,1-.45-.75,3,3,0,0,1-.15-1,2.61,2.61,0,0,1,.35-1.37,2.85,2.85,0,0,1,.93-.94,4.27,4.27,0,0,1,1.33-.54,6.92,6.92,0,0,1,1.55-.17A8.68,8.68,0,0,1,39,81a9.6,9.6,0,0,1,1.28.28v2.26A4.62,4.62,0,0,0,39.1,83a5.07,5.07,0,0,0-1.25-.16,2.82,2.82,0,0,0-.54.05,1.8,1.8,0,0,0-.45.15.83.83,0,0,0-.31.25.57.57,0,0,0-.11.35.64.64,0,0,0,.17.45,1.44,1.44,0,0,0,.44.32,4.32,4.32,0,0,0,.6.24l.65.22a8.42,8.42,0,0,1,1.06.45,3.42,3.42,0,0,1,.81.57,2.23,2.23,0,0,1,.52.76,3,3,0,0,1-.19,2.48,2.94,2.94,0,0,1-1,1,4.41,4.41,0,0,1-1.4.55,7.78,7.78,0,0,1-1.65.17A8.5,8.5,0,0,1,33.57,90.37Z"/><path class="cls-3" d="M51.09,86.7h-6.2q.15,2.07,2.61,2.07A5.09,5.09,0,0,0,50.25,88v2.12a7.24,7.24,0,0,1-3.42.71A4.42,4.42,0,0,1,42,86a5.09,5.09,0,0,1,1.37-3.75,4.57,4.57,0,0,1,3.38-1.38A4.15,4.15,0,0,1,50,82.12a4.76,4.76,0,0,1,1.14,3.35Zm-2.72-1.8q0-2-1.65-2a1.58,1.58,0,0,0-1.22.58,2.66,2.66,0,0,0-.63,1.46Z"/><path class="cls-3" d="M59,83.76a2.54,2.54,0,0,0-1.23-.29,1.78,1.78,0,0,0-1.49.7,3.06,3.06,0,0,0-.54,1.91v4.54H52.83v-9.5h2.93v1.76h0A2.54,2.54,0,0,1,58.31,81a1.89,1.89,0,0,1,.72.11Z"/><path class="cls-3" d="M76.84,89.73A9.58,9.58,0,0,1,72,90.85a7,7,0,0,1-5.06-1.78,6.46,6.46,0,0,1-1.85-4.89,6.83,6.83,0,0,1,2-5.11,7.37,7.37,0,0,1,5.38-2,10.9,10.9,0,0,1,3.73.58v2.81a7.41,7.41,0,0,0-3.77-.89,4,4,0,0,0-3,1.21,5.17,5.17,0,0,0-.12,6.41,3.71,3.71,0,0,0,2.84,1.12A4,4,0,0,0,73.85,88v-2.6H71.18V83h5.66Z"/><path class="cls-3" d="M88.17,90.62H85.25V89.17h0a3.32,3.32,0,0,1-2.9,1.68q-3.3,0-3.3-4V81.12h2.92v5.47q0,2,1.6,2a1.58,1.58,0,0,0,1.26-.55,2.22,2.22,0,0,0,.47-1.5V81.12h2.92Z"/><path class="cls-3" d="M92.12,79.61a1.71,1.71,0,0,1-1.22-.44,1.42,1.42,0,0,1-.47-1.08A1.37,1.37,0,0,1,90.91,77a2,2,0,0,1,2.44,0,1.38,1.38,0,0,1,.47,1.08,1.42,1.42,0,0,1-.47,1.09A1.74,1.74,0,0,1,92.12,79.61Zm1.45,11H90.64v-9.5h2.93Z"/><path class="cls-3" d="M105.33,90.62H102.4V89.31h0a3.29,3.29,0,0,1-2.94,1.54,3.6,3.6,0,0,1-2.87-1.26,5.2,5.2,0,0,1-1.09-3.51,5.66,5.66,0,0,1,1.2-3.78,3.9,3.9,0,0,1,3.13-1.42,2.67,2.67,0,0,1,2.56,1.32h0V76.55h2.93ZM102.46,86v-.71a2.25,2.25,0,0,0-.54-1.54A1.9,1.9,0,0,0,99,83.9a3.55,3.55,0,0,0-.55,2.1A3.07,3.07,0,0,0,99,87.93a1.88,1.88,0,0,0,2.92,0A3,3,0,0,0,102.46,86Z"/><path class="cls-3" d="M116.34,86.7h-6.2q.15,2.07,2.61,2.07A5.09,5.09,0,0,0,115.5,88v2.12a7.24,7.24,0,0,1-3.42.71A4.42,4.42,0,0,1,107.24,86a5.09,5.09,0,0,1,1.37-3.75A4.57,4.57,0,0,1,112,80.88a4.15,4.15,0,0,1,3.21,1.23,4.76,4.76,0,0,1,1.14,3.35Zm-2.72-1.8q0-2-1.65-2a1.58,1.58,0,0,0-1.22.58,2.66,2.66,0,0,0-.63,1.46Z"/><g id="Ebook_Bookstore" data-name="Ebook Bookstore"><path class="cls-4" d="M85.64,26.38H50.27a3.68,3.68,0,0,0-3.68,3.68V33H89.33V30.06A3.68,3.68,0,0,0,85.64,26.38Z"/><circle class="cls-5" cx="49.9" cy="29.7" r="1.11" transform="translate(-7.7 37.08) rotate(-38.06)"/><circle class="cls-5" cx="53.59" cy="29.7" r="1.11"/><circle class="cls-5" cx="57.27" cy="29.7" r="1.11"/><path class="cls-6" d="M89.33,56.46V30.06a3.68,3.68,0,0,0-3.68-3.68H50.27a3.68,3.68,0,0,0-3.68,3.68v5.16"/><path class="cls-6" d="M46.59,41.85V61a3.68,3.68,0,0,0,3.68,3.68H81.09"/><line class="cls-6" x1="46.59" y1="39.64" x2="46.59" y2="37.43"/><path class="cls-7" d="M61,58.8h3.68a3.68,3.68,0,0,1,3.68,3.68V59.54a3.68,3.68,0,0,0-3.68-3.68H56.17A1.84,1.84,0,0,1,54.33,54V41.12h-.74A1.84,1.84,0,0,0,51.75,43V57a1.84,1.84,0,0,0,1.84,1.84h.74"/><path class="cls-4" d="M68.25,58.8l.07.74a3.68,3.68,0,0,0-3.68-3.68H56.17A1.84,1.84,0,0,1,54.33,54V39.27a1.84,1.84,0,0,1,1.84-1.84h8.47a3.68,3.68,0,0,1,3.68,3.68V59.54"/><path class="cls-4" d="M68.4,58.8l-.07.74A3.68,3.68,0,0,1,72,55.85h8.47A1.84,1.84,0,0,0,82.33,54V39.27a1.84,1.84,0,0,0-1.84-1.84H72a3.68,3.68,0,0,0-3.68,3.68V59.54"/><line class="cls-5" x1="57.64" y1="41.12" x2="65.01" y2="41.12"/><line class="cls-5" x1="57.64" y1="44.06" x2="65.01" y2="44.06"/><line class="cls-5" x1="57.64" y1="47.01" x2="65.01" y2="47.01"/><line class="cls-5" x1="57.64" y1="49.96" x2="65.01" y2="49.96"/><line class="cls-5" x1="71.64" y1="41.12" x2="79.01" y2="41.12"/><line class="cls-5" x1="71.64" y1="44.06" x2="79.01" y2="44.06"/><line class="cls-5" x1="71.64" y1="47.01" x2="79.01" y2="47.01"/><line class="cls-5" x1="71.64" y1="49.96" x2="79.01" y2="49.96"/><line class="cls-8" x1="56.54" y1="58.8" x2="58.75" y2="58.8"/><path class="cls-6" d="M82.57,58.67v6.59a.74.74,0,0,0,1.26.52l1.27-1.27a.74.74,0,0,1,1,0l3.65,3.65a.74.74,0,0,0,1,0l2-2a.74.74,0,0,0,0-1L89.15,61.5a.74.74,0,0,1,0-1l1.27-1.27a.74.74,0,0,0-.52-1.26H83.3A.74.74,0,0,0,82.57,58.67Z"/><path class="cls-9" d="M81.09,58.67a2.21,2.21,0,0,1,2.21-2.21h1.6V43a1.84,1.84,0,0,0-1.84-1.84h-.74V54a1.84,1.84,0,0,1-1.84,1.84H72a3.68,3.68,0,0,0-3.68,3.68v2.95A3.68,3.68,0,0,1,72,58.8h9.08Z"/><path class="cls-6" d="M84.9,56.46V43a1.84,1.84,0,0,0-1.84-1.84h-.74V54a1.84,1.84,0,0,1-1.84,1.84H72a3.68,3.68,0,0,0-3.68,3.68v2.95A3.68,3.68,0,0,1,72,58.8h9.08"/></g></g></g></svg>